<svg xmlns="http://www.w3.org/2000/svg" height="48px" viewBox="0 -960 960 960" width="48px" fill="#1f1f1f"><path d="M480-425.28ZM226.48-102.8q-51.67 0-87.67-36.01-36.01-36-36.01-87.67V-480q0-23.96 8.99-46.96t27.53-40.76l254.25-253.24q18-18.24 40.61-27.36 22.61-9.11 45.61-9.11 23.67 0 46.6 9.23 22.92 9.24 41.34 26.54l253.99 253.99q16.5 17.71 26.11 40.51 9.6 22.79 9.6 47.18v253.5q0 51.67-35.47 87.67-35.47 36.01-87.68 36.01h-507.8Zm0-77.07h507.8q19.21 0 33.03-13.66t13.82-32.95v-258.28q0-7.87-3-14.77-3-6.89-7.52-12.04L602.76-679.41l-67.65 67.65 152.56 153.8v185.63H272.33v-185.63l275.32-275.56-34.71-33.52q-9.48-8.81-18.37-11.45-8.89-2.64-14.61-2.64-5.72 0-14.82 2.42-9.09 2.42-17.47 11.1L190.39-511.57q-4.52 5.67-7.52 12.38-3 6.72-3 14.43v258.28q0 19.29 13.66 32.95 13.66 13.66 32.95 13.66Zm123.15-169.76h261.74v-75.65L480-556.65 349.63-425.28v75.65Z"/></svg>