<svg xmlns="http://www.w3.org/2000/svg" height="40px" viewBox="0 -960 960 960" width="40px" fill="#1f1f1f"><path d="M233.5-113.3q-49.91 0-85.05-35.15-35.15-35.14-35.15-85.05V-480q0-24.21 8.99-46.13 8.99-21.91 26.04-39.2l247.16-246.26q17.64-17.98 39.68-26.62 22.05-8.65 44.83-8.65 23.21 0 45.21 8.65 21.99 8.64 40.12 26.62l32.47 32.62-320.05 320.71v180.51h404.5v-180.51l-148.54-149.2 117.8-117.71 160.08 159.84q16.9 17.29 26.08 39.12 9.19 21.84 9.19 46.21v246.5q0 49.91-34.89 85.05-34.89 35.15-85.04 35.15H233.5Z"/></svg>