<svg xmlns="http://www.w3.org/2000/svg" height="24px" viewBox="0 -960 960 960" width="24px" fill="#1f1f1f"><path d="M361.14-533.34q-49.27-49.27-49.27-118.86 0-69.58 49.27-118.74 49.27-49.15 118.86-49.15t118.86 49.15q49.27 49.16 49.27 118.74 0 69.59-49.27 118.86-49.27 49.27-118.86 49.27t-118.86-49.27ZM151.87-147.8v-120.61q0-36.16 18.7-66.57 18.69-30.41 49.84-46.37 62.72-31.24 127.68-46.98 64.95-15.74 131.91-15.74 67.43 0 132.39 15.62 64.96 15.62 127.2 46.86 31.15 15.96 49.84 46.25 18.7 30.3 18.7 66.93v120.61H151.87Z"/></svg>